<svg width="192" height="130" viewBox="0 0 192 130" fill="none" xmlns="http://www.w3.org/2000/svg">
<path d="M52.2036 129.8C40.6836 129.8 31.2036 127.7 23.7636 123.5C16.3236 119.18 10.7436 113.48 7.0236 106.4C3.30359 99.2 1.20359 91.16 0.723594 82.28C0.603594 79.04 0.483594 75.38 0.363594 71.3C0.363594 67.1 0.363594 62.9 0.363594 58.7C0.483594 54.38 0.603594 50.54 0.723594 47.18C1.20359 38.42 3.36359 30.5 7.20359 23.42C11.0436 16.34 16.6836 10.7 24.1236 6.5C31.6836 2.29999 41.0436 0.199993 52.2036 0.199993C63.4836 0.199993 72.8436 2.29999 80.2836 6.5C87.7236 10.7 93.3636 16.34 97.2036 23.42C101.164 30.5 103.384 38.42 103.864 47.18C103.984 50.54 104.044 54.38 104.044 58.7C104.164 62.9 104.164 67.1 104.044 71.3C104.044 75.38 103.984 79.04 103.864 82.28C103.264 91.16 101.104 99.2 97.3836 106.4C93.7836 113.48 88.2636 119.18 80.8236 123.5C73.3836 127.7 63.8436 129.8 52.2036 129.8ZM52.2036 103.7C58.3236 103.7 62.8236 101.66 65.7036 97.58C68.5836 93.5 70.0836 88.1 70.2036 81.38C70.4436 76.34 70.5636 70.82 70.5636 64.82C70.5636 58.7 70.4436 53.18 70.2036 48.26C70.0836 41.78 68.5836 36.5 65.7036 32.42C62.9436 28.22 58.4436 26.06 52.2036 25.94C45.9636 26.06 41.4636 28.22 38.7036 32.42C35.9436 36.5 34.4436 41.78 34.2036 48.26C33.9636 53.18 33.8436 58.7 33.8436 64.82C33.8436 70.82 33.9636 76.34 34.2036 81.38C34.4436 88.1 35.9436 93.5 38.7036 97.58C41.5836 101.66 46.0836 103.7 52.2036 103.7ZM163.387 128C162.187 128 161.107 127.58 160.147 126.74C159.307 125.9 158.887 124.82 158.887 123.5V37.82L134.227 56.72C133.147 57.56 132.007 57.86 130.807 57.62C129.727 57.38 128.767 56.72 127.927 55.64L117.307 41.78C116.587 40.7 116.287 39.56 116.407 38.36C116.647 37.04 117.367 36.02 118.567 35.3L159.967 3.26C161.167 2.41999 162.607 1.99999 164.287 1.99999H186.787C188.107 1.99999 189.187 2.41999 190.027 3.26C190.867 4.09999 191.287 5.17999 191.287 6.5V123.5C191.287 124.82 190.867 125.9 190.027 126.74C189.187 127.58 188.107 128 186.787 128H163.387Z" fill="white"/>
</svg>
