<svg width="230" height="130" viewBox="0 0 230 130" fill="none" xmlns="http://www.w3.org/2000/svg">
<path d="M105.914 48.98C106.154 52.34 106.274 57.74 106.274 65.18C106.274 72.5 106.154 77.78 105.914 81.02C105.074 95.3 100.334 107 91.6936 116.12C83.1736 125.24 70.3936 129.8 53.3536 129.8C36.3136 129.8 23.4736 125.24 14.8336 116.12C6.31359 107 1.63359 95.3 0.793594 81.02C0.553594 74.54 0.433594 69.26 0.433594 65.18C0.433594 61.1 0.553594 55.7 0.793594 48.98C1.63359 34.7 6.31359 23 14.8336 13.88C23.4736 4.76 36.3136 0.199993 53.3536 0.199993C70.3936 0.199993 83.1736 4.76 91.6936 13.88C100.334 23 105.074 34.7 105.914 48.98ZM72.6136 49.88C72.2536 43.28 70.6336 38.18 67.7536 34.58C64.8736 30.86 60.0736 29 53.3536 29C46.6336 29 41.8336 30.86 38.9536 34.58C36.0736 38.18 34.4536 43.28 34.0936 49.88C33.8536 56.36 33.7336 61.34 33.7336 64.82C33.7336 68.06 33.8536 73.16 34.0936 80.12C34.3336 86.72 35.8936 91.88 38.7736 95.6C41.7736 99.2 46.6336 101 53.3536 101C60.0736 101 64.8736 99.2 67.7536 95.6C70.7536 91.88 72.3736 86.72 72.6136 80.12C72.8536 76.64 72.9736 71.54 72.9736 64.82C72.9736 58.1 72.8536 53.12 72.6136 49.88ZM217.959 1.99999C219.279 1.99999 220.419 2.47999 221.379 3.43999C222.339 4.4 222.819 5.54 222.819 6.85999V25.94C222.819 27.74 221.619 29.84 219.219 32.24L197.439 54.2C207.279 56.6 215.019 60.74 220.659 66.62C226.299 72.5 229.119 79.94 229.119 88.94C229.119 102.26 224.439 112.4 215.079 119.36C205.839 126.32 192.759 129.8 175.839 129.8C164.919 129.8 155.379 128.12 147.219 124.76C139.059 121.4 132.819 117.02 128.499 111.62C124.179 106.1 121.899 100.28 121.659 94.16C121.659 93.08 122.019 92.18 122.739 91.46C123.579 90.62 124.539 90.2 125.619 90.2H148.299C150.219 90.2 151.779 90.56 152.979 91.28C154.179 91.88 155.559 92.9 157.119 94.34C159.519 96.5 161.979 98.18 164.499 99.38C167.139 100.46 170.919 101 175.839 101C181.839 101 186.639 99.98 190.239 97.94C193.959 95.9 195.819 92.9 195.819 88.94C195.819 84.98 193.959 81.98 190.239 79.94C186.639 77.9 181.839 76.88 175.839 76.88H160.899C159.579 76.88 158.439 76.4 157.479 75.44C156.519 74.48 156.039 73.34 156.039 72.02V56.54C156.039 55.34 156.339 54.26 156.939 53.3C157.659 52.34 158.619 51.26 159.819 50.06L178.899 30.8H131.919C130.599 30.8 129.459 30.32 128.499 29.36C127.539 28.4 127.059 27.26 127.059 25.94V6.85999C127.059 5.54 127.539 4.4 128.499 3.43999C129.459 2.47999 130.599 1.99999 131.919 1.99999H217.959Z" fill="white"/>
</svg>
