<svg width="21" height="22" viewBox="0 0 21 22" fill="none" xmlns="http://www.w3.org/2000/svg">
<circle cx="10.5" cy="10.787" r="10.5" fill="white"/>
<path d="M11.5078 10.135C11.8064 9.86432 12.0211 9.59832 12.1518 9.33699C12.2824 9.07565 12.3478 8.74432 12.3478 8.34299C12.3478 7.82032 12.1984 7.40032 11.8998 7.08299C11.6011 6.76565 11.1484 6.60699 10.5418 6.60699C9.94445 6.60699 9.49645 6.76565 9.19778 7.08299C8.89911 7.39099 8.68445 7.81099 8.55378 8.34299C8.52578 8.44565 8.47911 8.52499 8.41378 8.58099C8.34845 8.63699 8.27378 8.66499 8.18978 8.66499H7.54578C7.46178 8.66499 7.38711 8.63699 7.32178 8.58099C7.26578 8.51565 7.23778 8.44099 7.23778 8.35699C7.25645 7.88099 7.39645 7.40965 7.65778 6.94299C7.92845 6.47632 8.31111 6.09365 8.80578 5.79499C9.30045 5.49632 9.87911 5.34699 10.5418 5.34699C11.2044 5.34699 11.7691 5.48232 12.2358 5.75299C12.7118 6.01432 13.0711 6.37365 13.3138 6.83099C13.5564 7.27899 13.6778 7.78299 13.6778 8.34299C13.6778 8.93099 13.5751 9.43499 13.3698 9.85499C13.1738 10.2657 12.8331 10.6857 12.3478 11.115L9.22578 14.027H13.5098C13.6124 14.027 13.7011 14.0643 13.7758 14.139C13.8504 14.2137 13.8878 14.3023 13.8878 14.405V14.909C13.8878 15.0117 13.8504 15.1003 13.7758 15.175C13.7011 15.2497 13.6124 15.287 13.5098 15.287H7.47578C7.37311 15.287 7.28445 15.2497 7.20978 15.175C7.13511 15.1003 7.09778 15.0117 7.09778 14.909V14.405C7.09778 14.3023 7.11645 14.2183 7.15378 14.153C7.20045 14.0783 7.28445 13.985 7.40578 13.873L11.5078 10.135Z" fill="black"/>
</svg>
