<svg width="228" height="130" viewBox="0 0 228 130" fill="none" xmlns="http://www.w3.org/2000/svg">
<path d="M105.671 48.98C105.911 52.34 106.031 57.74 106.031 65.18C106.031 72.5 105.911 77.78 105.671 81.02C104.831 95.3 100.091 107 91.4514 116.12C82.9314 125.24 70.1514 129.8 53.1114 129.8C36.0714 129.8 23.2314 125.24 14.5914 116.12C6.07141 107 1.39141 95.3 0.551406 81.02C0.311406 74.54 0.191406 69.26 0.191406 65.18C0.191406 61.1 0.311406 55.7 0.551406 48.98C1.39141 34.7 6.07141 23 14.5914 13.88C23.2314 4.76 36.0714 0.199993 53.1114 0.199993C70.1514 0.199993 82.9314 4.76 91.4514 13.88C100.091 23 104.831 34.7 105.671 48.98ZM72.3714 49.88C72.0114 43.28 70.3914 38.18 67.5114 34.58C64.6314 30.86 59.8314 29 53.1114 29C46.3914 29 41.5914 30.86 38.7114 34.58C35.8314 38.18 34.2114 43.28 33.8514 49.88C33.6114 56.36 33.4914 61.34 33.4914 64.82C33.4914 68.06 33.6114 73.16 33.8514 80.12C34.0914 86.72 35.6514 91.88 38.5314 95.6C41.5314 99.2 46.3914 101 53.1114 101C59.8314 101 64.6314 99.2 67.5114 95.6C70.5114 91.88 72.1314 86.72 72.3714 80.12C72.6114 76.64 72.7314 71.54 72.7314 64.82C72.7314 58.1 72.6114 53.12 72.3714 49.88ZM177.037 99.2H222.217C223.537 99.2 224.677 99.68 225.637 100.64C226.597 101.6 227.077 102.74 227.077 104.06V123.14C227.077 124.46 226.597 125.6 225.637 126.56C224.677 127.52 223.537 128 222.217 128H127.177C125.857 128 124.717 127.52 123.757 126.56C122.797 125.6 122.317 124.46 122.317 123.14V107.66C122.317 103.1 124.057 99.56 127.537 97.04L181.357 58.52C185.197 55.64 187.717 53 188.917 50.6C190.237 48.08 190.897 45.38 190.897 42.5C190.897 39.5 189.817 36.5 187.657 33.5C185.617 30.5 181.657 29 175.777 29C171.697 29 168.457 29.84 166.057 31.52C163.777 33.08 162.277 34.58 161.557 36.02C160.957 37.34 160.117 39.44 159.037 42.32C158.437 43.88 157.537 44.96 156.337 45.56C155.137 46.16 153.637 46.46 151.837 46.46H129.697C128.617 46.46 127.657 46.1 126.817 45.38C126.097 44.54 125.737 43.58 125.737 42.5C125.977 35.42 127.957 28.7 131.677 22.34C135.397 15.86 140.977 10.58 148.417 6.5C155.857 2.29999 164.917 0.199993 175.597 0.199993C185.797 0.199993 194.557 2.17999 201.877 6.13999C209.197 9.97999 214.717 15.14 218.437 21.62C222.277 27.98 224.197 34.94 224.197 42.5C224.197 49.82 222.517 56.48 219.157 62.48C215.917 68.36 210.277 74.24 202.237 80.12L177.037 99.2Z" fill="white"/>
</svg>
